<?xml version="1.0" encoding="utf-8"?>
<!-- Generator: Adobe Adobe Illustrator 24.2.0, SVG Export Plug-In . SVG Version: 6.00 Build 0)  -->
<svg version="1.1" id="Layer_1" xmlns="http://www.w3.org/2000/svg" xmlns:xlink="http://www.w3.org/1999/xlink" x="0px" y="0px"
	 viewBox="0 0 300 200" style="enable-background:new 0 0 300 200;" xml:space="preserve">
<style type="text/css">
	.st0{stroke:#FFFFFF;stroke-miterlimit:10;}
</style>
<g>
	<circle cx="150" cy="91.84" r="10.25"/>
	<circle cx="120" cy="61.84" r="10.25"/>
	<circle cx="150" cy="31.84" r="10.25"/>
	<circle cx="180" cy="61.84" r="10.25"/>
</g>
<path d="M139.5,158.93v-44.62v0c0-4.9,3.98-8.88,8.88-8.88h3.24c4.9,0,8.88,3.98,8.88,8.88v0v44.62h-9.97h-2.57H139.5z"/>
<path class="st0" d="M150,134.63v22.39V134.63z"/>
<path d="M123.25,109.68v-0.5c0-2.07,1.68-3.75,3.75-3.75h46c2.07,0,3.75,1.68,3.75,3.75v0.5c0,2.07-1.68,3.75-3.75,3.75h-46
	C124.93,113.43,123.25,111.75,123.25,109.68z"/>
</svg>
