<?xml version="1.0" encoding="utf-8"?>
<!-- Generator: Adobe Adobe Illustrator 24.2.0, SVG Export Plug-In . SVG Version: 6.00 Build 0)  -->
<svg version="1.1" id="Layer_1" xmlns="http://www.w3.org/2000/svg" xmlns:xlink="http://www.w3.org/1999/xlink" x="0px" y="0px"
	 viewBox="0 0 300 200" style="enable-background:new 0 0 300 200;" xml:space="preserve">
<g>
	<g>
		<polyline points="112.03,136.9 116.86,124.53 121.7,136.9 121.15,148.02 112.1,148.01 		"/>
		<polyline points="117.44,135.14 129.61,129.8 124.28,141.98 116.03,149.45 109.64,143.04 		"/>
		<polyline points="122.52,137.71 134.89,142.55 122.52,147.39 111.4,146.84 111.41,137.79 		"/>
		<polyline points="124.28,143.13 129.61,155.3 117.44,149.97 109.97,141.72 116.38,135.32 		"/>
		<polyline points="121.71,148.2 116.87,160.58 112.03,148.2 112.58,137.09 121.63,137.1 		"/>
		<polyline points="116.29,149.97 104.12,155.3 109.45,143.13 117.7,135.66 124.09,142.07 		"/>
		<polyline points="111.22,147.39 98.84,142.56 111.22,137.72 122.33,138.27 122.32,147.32 		"/>
		<polyline points="109.45,141.98 104.12,129.81 116.29,135.14 123.76,143.39 117.35,149.78 		"/>
	</g>
	<g>
		<polyline points="97.05,99.24 109.22,93.91 103.89,106.08 95.64,113.56 89.25,107.15 		"/>
		<polyline points="102.13,101.82 114.51,106.66 102.13,111.5 91.01,110.95 91.02,101.89 		"/>
		<polyline points="103.9,107.23 109.23,119.41 97.06,114.07 89.58,105.83 95.99,99.43 		"/>
		<polyline points="101.32,112.31 96.48,124.69 91.65,112.31 92.19,101.19 101.25,101.21 		"/>
		<polyline points="95.91,114.08 83.74,119.41 89.07,107.24 97.32,99.77 103.71,106.18 		"/>
		<polyline points="90.83,111.5 78.45,106.67 90.83,101.83 101.95,102.38 101.93,111.43 		"/>
		<polyline points="89.06,106.09 83.73,93.92 95.9,99.25 103.38,107.5 96.97,113.89 		"/>
		<polyline points="91.64,101.01 96.48,88.64 101.31,101.01 100.76,112.13 91.71,112.12 		"/>
	</g>
	<g>
		<polyline points="113.1,62.03 125.47,66.86 113.1,71.7 101.98,71.15 101.99,62.1 		"/>
		<polyline points="114.86,67.44 120.19,79.61 108.02,74.28 100.55,66.03 106.96,59.64 		"/>
		<polyline points="112.29,72.51 107.45,84.89 102.61,72.51 103.16,61.4 112.21,61.41 		"/>
		<polyline points="106.87,74.28 94.7,79.61 100.03,67.44 108.28,59.97 114.67,66.38 		"/>
		<polyline points="101.8,71.71 89.42,66.87 101.8,62.03 112.91,62.58 112.9,71.63 		"/>
		<polyline points="100.03,66.29 94.7,54.12 106.87,59.45 114.34,67.7 107.93,74.09 		"/>
		<polyline points="102.61,61.21 107.44,48.84 112.28,61.21 111.73,72.33 102.68,72.32 		"/>
		<polyline points="108.02,59.45 120.19,54.12 114.86,66.29 106.61,73.76 100.22,67.35 		"/>
	</g>
	<g>
		<polyline points="150.76,47.05 156.09,59.22 143.92,53.89 136.44,45.64 142.85,39.25 		"/>
		<polyline points="148.18,52.13 143.34,64.51 138.51,52.13 139.06,41.01 148.11,41.02 		"/>
		<polyline points="142.77,53.9 130.6,59.23 135.93,47.06 144.18,39.58 150.57,45.99 		"/>
		<polyline points="137.69,51.32 125.31,46.48 137.69,41.65 148.81,42.2 148.79,51.25 		"/>
		<polyline points="135.92,45.91 130.59,33.74 142.76,39.07 150.24,47.32 143.82,53.71 		"/>
		<polyline points="138.5,40.83 143.34,28.45 148.17,40.83 147.62,51.95 138.57,51.93 		"/>
		<polyline points="143.91,39.06 156.08,33.73 150.75,45.9 142.5,53.38 136.11,46.97 		"/>
		<polyline points="148.99,41.64 161.37,46.48 148.99,51.31 137.87,50.76 137.89,41.71 		"/>
	</g>
	<g>
		<polyline points="187.97,63.1 183.14,75.47 178.3,63.1 178.85,51.98 187.9,51.99 		"/>
		<polyline points="182.56,64.86 170.39,70.2 175.72,58.02 183.97,50.55 190.36,56.96 		"/>
		<polyline points="177.48,62.29 165.11,57.45 177.48,52.61 188.6,53.16 188.59,62.21 		"/>
		<polyline points="175.72,56.87 170.39,44.7 182.56,50.03 190.03,58.28 183.62,64.67 		"/>
		<polyline points="178.29,51.8 183.13,39.42 187.97,51.8 187.42,62.91 178.37,62.9 		"/>
		<polyline points="183.71,50.03 195.88,44.7 190.55,56.87 182.3,64.34 175.91,57.93 		"/>
		<polyline points="188.79,52.61 201.16,57.44 188.79,62.28 177.67,61.73 177.68,52.68 		"/>
		<polyline points="190.55,58.02 195.88,70.19 183.71,64.86 176.24,56.61 182.65,50.22 		"/>
	</g>
	<g>
		<polyline points="202.95,100.76 190.78,106.09 196.11,93.92 204.36,86.44 210.75,92.85 		"/>
		<polyline points="197.87,98.18 185.49,93.34 197.87,88.51 208.99,89.05 208.98,98.11 		"/>
		<polyline points="196.1,92.77 190.77,80.6 202.94,85.93 210.42,94.18 204.01,100.57 		"/>
		<polyline points="198.68,87.69 203.52,75.31 208.35,87.69 207.8,98.81 198.75,98.79 		"/>
		<polyline points="204.09,85.92 216.26,80.59 210.93,92.76 202.68,100.24 196.29,93.82 		"/>
		<polyline points="209.17,88.5 221.55,93.34 209.17,98.17 198.05,97.62 198.07,88.57 		"/>
		<polyline points="210.94,93.91 216.27,106.08 204.1,100.75 196.62,92.5 203.03,86.11 		"/>
		<polyline points="208.36,98.99 203.52,111.37 198.69,98.99 199.24,87.87 208.29,87.88 		"/>
	</g>
	<g>
		<polyline points="186.9,137.97 174.53,133.14 186.9,128.3 198.02,128.85 198.01,137.9 		"/>
		<polyline points="185.14,132.56 179.81,120.39 191.98,125.72 199.45,133.97 193.04,140.36 		"/>
		<polyline points="187.71,127.49 192.55,115.11 197.39,127.49 196.84,138.6 187.79,138.59 		"/>
		<polyline points="193.13,125.72 205.3,120.39 199.97,132.56 191.72,140.03 185.32,133.62 		"/>
		<polyline points="198.2,128.29 210.58,133.13 198.2,137.97 187.09,137.42 187.1,128.37 		"/>
		<polyline points="199.97,133.71 205.3,145.88 193.13,140.55 185.66,132.3 192.07,125.91 		"/>
		<polyline points="197.39,138.79 192.56,151.16 187.72,138.79 188.27,127.67 197.32,127.68 		"/>
		<polyline points="191.98,140.55 179.81,145.88 185.14,133.71 193.39,126.24 199.78,132.65 		"/>
	</g>
	<g>
		<polyline points="149.24,152.95 143.91,140.78 156.08,146.11 163.56,154.36 157.15,160.75 		"/>
		<polyline points="151.82,147.87 156.66,135.49 161.49,147.87 160.95,158.99 151.89,158.98 		"/>
		<polyline points="157.23,146.1 169.41,140.77 164.07,152.94 155.82,160.42 149.43,154.01 		"/>
		<polyline points="162.31,148.68 174.69,153.52 162.31,158.35 151.19,157.8 151.21,148.75 		"/>
		<polyline points="164.08,154.09 169.41,166.26 157.24,160.93 149.77,152.68 156.18,146.29 		"/>
		<polyline points="161.5,159.17 156.67,171.55 151.83,159.17 152.38,148.05 161.43,148.07 		"/>
		<polyline points="156.09,160.94 143.92,166.27 149.25,154.1 157.5,146.62 163.89,153.03 		"/>
		<polyline points="151.01,158.36 138.64,153.52 151.01,148.69 162.13,149.24 162.12,158.29 		"/>
	</g>
</g>
</svg>
