<?xml version="1.0" encoding="utf-8"?>
<!-- Generator: Adobe Adobe Illustrator 24.2.0, SVG Export Plug-In . SVG Version: 6.00 Build 0)  -->
<svg version="1.1" id="Layer_1" xmlns="http://www.w3.org/2000/svg" xmlns:xlink="http://www.w3.org/1999/xlink" x="0px" y="0px"
	 viewBox="0 0 1728 1296" style="enable-background:new 0 0 1728 1296;" xml:space="preserve">
<style type="text/css">
	.st0{fill:#000000;stroke:#FFFFFF;stroke-width:22;stroke-miterlimit:22;}
  <!-- .st1{fill:#A14828;stroke:#000000;stroke-width:5;stroke-miterlimit:10;} -->

</style>
<g>
	<g>
		<path class="st0" d="M1100.05,778.23l10.19-22.5c0,0-35.62-89.21-67.15-111.42c-53.14-37.43-127.3-20.94-165.64,36.83
			c-38.34,57.77-26.35,134.95,26.79,172.38c26.68,18.79,121.51,27.6,121.51,27.6c23.57-25.94,17.48-17.24,17.48-17.24l22.42,11.93
			l53.35-81.38L1100.05,778.23z M983.87,817.93c-7.45,11.22-22.03,14.3-32.57,6.87s-13.05-22.54-5.6-33.76
			c7.45-11.22,22.03-14.3,32.57-6.87C988.81,791.6,991.32,806.71,983.87,817.93z M1001.8,748.73c-10.54-7.42-13.05-22.54-5.6-33.76
			s22.03-14.3,32.57-6.87c10.54,7.42,13.05,22.54,5.6,33.76S1012.33,756.15,1001.8,748.73z M1030.41,814.17l-14.57-28.44l31.01,3.67
			L1030.41,814.17z"/>
	</g>
</g>
<g>
	<g>
		<path class="st0" d="M999.87,484.17c-31.7-61.9-103.55-86.98-160.48-56.04c-28.58,15.54-80.4,97.83-80.4,97.83
			c11.27,33.58,6.64,23.97,6.64,23.97l-20.7,14.86l44.97,86.59l22.75-9.7l14.56,19.78c0,0,93.21,9.18,126.99-9.19
			C1011.12,621.33,1031.57,546.06,999.87,484.17z M827.88,588l-13.6-26.55h31.21L827.88,588z M864.37,527.95
			c-11.29,6.14-25.44,1.37-31.59-10.65c-6.16-12.02-1.99-26.74,9.3-32.88c11.29-6.14,25.44-1.37,31.59,10.65
			C879.83,507.09,875.66,521.81,864.37,527.95z M906.12,609.46c-11.29,6.14-25.44,1.37-31.59-10.65
			c-6.16-12.02-1.99-26.74,9.3-32.88c11.29-6.14,25.44-1.37,31.59,10.65S917.41,603.32,906.12,609.46z"/>
	</g>
</g>
<g>
	<g>
		<path class="st0" d="M732.01,601.75c-67.93,0-123,53.76-123,120.08c0,33.29,46.46,118.91,46.46,118.91
			c34.09,5.4,23.68,5.13,23.68,5.13l3.1,25.8l95.32-0.56l2.29-25.25l23.78-4.03c0,0,51.38-80.64,51.38-119.99
			C855.01,655.51,799.94,601.75,732.01,601.75z M682.47,769.46c-13.19,0-23.89-10.66-23.89-23.82s10.7-23.82,23.89-23.82
			c13.19,0,23.89,10.66,23.89,23.82S695.66,769.46,682.47,769.46z M711.75,806.92l14.57-28.44l14.57,28.44H711.75z M771.93,769.46
			c-13.19,0-23.89-10.66-23.89-23.82s10.7-23.82,23.89-23.82c13.19,0,23.89,10.66,23.89,23.82S785.12,769.46,771.93,769.46z"/>
	</g>
</g>
</svg>
