<?xml version="1.0" encoding="utf-8"?>
<!-- Generator: Adobe Adobe Illustrator 24.2.0, SVG Export Plug-In . SVG Version: 6.00 Build 0)  -->
<svg version="1.1" id="Layer_1" xmlns="http://www.w3.org/2000/svg" xmlns:xlink="http://www.w3.org/1999/xlink" x="0px" y="0px"
	 viewBox="0 0 300 200" style="enable-background:new 0 0 300 200;" xml:space="preserve">
<g>
	<g>
		<path d="M150,69.75c-16.71,0-30.25,13.54-30.25,30.25c0,8.39,11.43,29.96,11.43,29.96c8.38,1.36,5.82,1.29,5.82,1.29l0.76,6.5
			l23.44-0.14l0.56-6.36l5.85-1.02c0,0,12.64-20.32,12.64-30.23C180.25,83.29,166.71,69.75,150,69.75z M137.82,112
			c-3.24,0-5.88-2.69-5.88-6s2.63-6,5.88-6c3.24,0,5.88,2.69,5.88,6S141.06,112,137.82,112z M145.02,121.44l3.58-7.16l3.58,7.16
			H145.02z M159.82,112c-3.24,0-5.88-2.69-5.88-6s2.63-6,5.88-6c3.24,0,5.88,2.69,5.88,6S163.06,112,159.82,112z"/>
	</g>
</g>
</svg>
