<?xml version="1.0" encoding="utf-8"?>
<!-- Generator: Adobe Adobe Illustrator 24.2.0, SVG Export Plug-In . SVG Version: 6.00 Build 0)  -->
<svg version="1.1" id="Layer_1" xmlns="http://www.w3.org/2000/svg" xmlns:xlink="http://www.w3.org/1999/xlink" x="0px" y="0px"
	 viewBox="0 0 300 200" style="enable-background:new 0 0 300 200;" xml:space="preserve">
<g>
	<polygon points="111.01,125.28 109.1,119.12 102.95,119.12 107.93,115.32 106.03,109.17 111.01,112.97 115.98,109.17 
		114.08,115.32 119.06,119.12 112.91,119.12 	"/>
	<polygon points="104.43,90 107.43,84.3 103.08,79.95 109.29,80.78 112.3,75.09 113.13,81.3 119.34,82.13 113.64,85.14 
		114.47,91.34 110.12,86.99 	"/>
	<polygon points="124.72,60.4 130.88,58.5 130.88,52.35 134.68,57.33 140.83,55.42 137.03,60.4 140.83,65.38 134.68,63.48 
		130.88,68.46 130.88,62.3 	"/>
	<polygon points="160,53.82 165.7,56.83 170.05,52.48 169.22,58.69 174.91,61.69 168.7,62.52 167.87,68.73 164.87,63.04 
		158.66,63.87 163.01,59.52 	"/>
	<polygon points="189.6,74.12 191.5,80.27 197.65,80.27 192.67,84.07 194.58,90.23 189.6,86.42 184.62,90.23 186.52,84.07 
		181.54,80.27 187.7,80.27 	"/>
	<polygon points="196.18,109.4 193.17,115.09 197.52,119.44 191.31,118.61 188.31,124.31 187.48,118.1 181.27,117.27 186.96,114.26 
		186.13,108.05 190.48,112.4 	"/>
	<polygon points="175.88,138.99 169.73,140.9 169.73,147.05 165.93,142.07 159.77,143.97 163.58,138.99 159.77,134.02 
		165.93,135.92 169.73,130.94 169.73,137.09 	"/>
	<polygon points="140.6,145.57 134.91,142.57 130.56,146.92 131.39,140.71 125.69,137.7 131.9,136.87 132.73,130.66 135.74,136.36 
		141.95,135.53 137.6,139.88 	"/>
</g>
</svg>
