<?xml version="1.0" encoding="UTF-8" standalone="no"?> <!-- Created with Vectornator for iOS (http://vectornator.io/) --><!DOCTYPE svg PUBLIC "-//W3C//DTD SVG 1.1//EN" "http://www.w3.org/Graphics/SVG/1.1/DTD/svg11.dtd">
<svg style="fill-rule:evenodd;clip-rule:evenodd;stroke-linecap:round;stroke-linejoin:round;" xmlns:vectornator="http://vectornator.io" xmlns:xlink="http://www.w3.org/1999/xlink" xmlns="http://www.w3.org/2000/svg" xml:space="preserve" version="1.1" viewBox="0 0 74 105">
<metadata>
<vectornator:setting key="DimensionsVisible" value="1"/>
<vectornator:setting key="Units" value="Pixels"/>
<vectornator:setting key="New" value="1"/>
<vectornator:setting key="SnapToPoints" value="0"/>
<vectornator:setting key="GuidesVisible" value="1"/>
<vectornator:setting key="RulersVisible" value="1"/>
<vectornator:setting key="CMYKEnabledKey" value="0"/>
<vectornator:setting key="SnapToEdges" value="0"/>
<vectornator:setting key="DisplayWhiteBackground" value="0"/>
<vectornator:setting key="SnapToGuides" value="1"/>
<vectornator:setting key="GridSpacing" value="36"/>
<vectornator:setting key="DynamicGuides" value="0"/>
<vectornator:setting key="IsolateActiveLayer" value="1"/>
<vectornator:setting key="SnapToGrid" value="0"/>
</metadata>
<defs/>
<g id="Layer 1" vectornator:layerName="Layer 1">
<path stroke="#030000" stroke-width="1" d="M14.817+39.3575C13.6211+24.0274+22.9037+10.8001+35.5503+9.81349C48.1969+8.82693+59.4185+20.4547+60.6144+35.7849C61.8103+51.115+52.5277+64.3424+39.8811+65.3289C27.2345+66.3155+16.0129+54.6877+14.817+39.3575Z" fill="#000000" stroke-linecap="round" fill-opacity="0.00505051" opacity="1" stroke-linejoin="round"/>
<path stroke="#030000" stroke-width="1" d="M27.8138+62.5647C19.8272+75.2042+14.2294+67.7209+14.0559+84.6667C13.8824+101.612+13.746+106.63+13.746+106.63" fill="none" stroke-linecap="round" opacity="1" stroke-linejoin="round"/>
<path stroke="#030000" stroke-width="1" d="M27.8138+62.5647C19.8272+75.2042+14.2294+67.7209+14.0559+84.6667C13.8824+101.612+13.746+106.63+13.746+106.63" fill="none" stroke-linecap="round" opacity="1" stroke-linejoin="round"/>
<path stroke="#030000" stroke-width="1" d="M27.8138+62.5647C19.8272+75.2042+14.2294+67.7209+14.0559+84.6667C13.8824+101.612+13.746+106.63+13.746+106.63" fill="none" stroke-linecap="round" opacity="1" stroke-linejoin="round"/>
<path stroke="#030000" stroke-width="1" d="M49.986+62.2659C57.9725+74.9054+63.5704+67.4222+63.7439+84.368C63.9173+101.314+64.0537+106.331+64.0537+106.331" fill="none" stroke-linecap="round" opacity="1" stroke-linejoin="round"/>
<path stroke="#030000" stroke-width="1" d="M41.6076+122.615C41.0126+120.206+40.424+117.791+39.98+115.349" fill="none" stroke-linecap="round" opacity="1" stroke-linejoin="round"/>
</g>
<g id="Layer 2" vectornator:layerName="Layer 2" visibility="hidden">
<path stroke="#030000" stroke-width="1" d="M24.34+29.253C24.6182+28.6967+25.3826+28.2803+25.8927+27.9664C28.7282+26.2215+29.4903+27.555+32.0594+28.5432C33.0343+28.9181+34.0106+28.9526+35.0318+29.0312C35.7418+29.0858+36.4618+29.1813+37.117+28.8537" fill="none" stroke-linecap="round" opacity="1" stroke-linejoin="round"/>
<path stroke="#030000" stroke-width="1" d="M41.6865+28.4544C42.3789+28.4544+42.8046+28.827+43.5498+28.4544C46.18+27.1393+48.4621+22.8584+52.0234+24.6391" fill="none" stroke-linecap="round" opacity="1" stroke-linejoin="round"/>
<path stroke="#030000" stroke-width="1" d="M32.4809+33.8225C31.8359+33.718+31.9997+34.2267+32.2369+34.2662C32.4921+34.3087+32.9485+33.5582+32.7692+33.3789C32.5587+33.1683+32.2183+34.0258+32.3256+34.1331C32.5402+34.3476+32.9467+33.4676+32.9467+33.4676C32.9467+33.4676+32.6736+33.8538+32.4809+33.8225Z" fill="none" stroke-linecap="round" opacity="1" stroke-linejoin="round"/>
<path stroke="#030000" stroke-width="1" d="M46.8772+31.9814C46.7065+31.6722+46.3421+32.6899+46.4779+32.7578C46.5531+32.7954+46.8148+31.9071+46.8328+31.8261C46.8523+31.7383+46.9408+31.4963+46.8772+31.56C46.5353+31.9018+47.1806+32.5312+46.8772+31.9814Z" fill="none" stroke-linecap="round" opacity="1" stroke-linejoin="round"/>
<path stroke="#030000" stroke-width="1" d="M38.6032+42.8064C38.5835+42.058+38.3237+42.5975+38.2704+42.9173C38.1921+43.3875+38.575+42.9412+38.6254+42.7398C38.6401+42.6807+38.6697+42.5624+38.6697+42.5624C38.6697+42.5624+38.4702+43.2053+38.5366+43.0504C38.5698+42.9729+38.6054+42.8906+38.6032+42.8064Z" fill="none" stroke-linecap="round" opacity="1" stroke-linejoin="round"/>
<path stroke="#030000" stroke-width="1" d="M43.8825+42.4514C43.9275+42.6397+43.7273+41.8887+43.7273+41.9412C43.7273+43.0201+44.0089+41.8226+43.7716+41.9412C43.5391+42.0575+43.8673+42.3875+43.8825+42.4514Z" fill="none" stroke-linecap="round" opacity="1" stroke-linejoin="round"/>
<path stroke="#030000" stroke-width="1" d="M34.7656+49.2614C37.4275+49.2614+39.8967+49.2139+42.5738+48.6403C43.7185+48.395+44.9393+48.326+45.9899+47.753C46.7316+47.3484+47.488+46.7933+47.9419+46.0671C48.0943+45.8233+48.2906+45.0499+48.563+44.9137" fill="none" stroke-linecap="round" opacity="1" stroke-linejoin="round"/>
<path stroke="#030000" stroke-width="1" d="M40.0612+33.4233C40.4575+34.216+39.6619+35.8765+39.6619+35.8633" fill="none" stroke-linecap="round" opacity="1" stroke-linejoin="round"/>
<path stroke="#030000" stroke-width="1" d="M43.7656+42.0522C43.1573+43.1612+44.2629+41.7385+43.7878+41.8969C43.6439+41.9448+43.7847+42.593+43.8765+42.5624C43.948+42.5385+43.9743+41.6716+43.7656+42.0522Z" fill="none" stroke-linecap="round" opacity="1" stroke-linejoin="round"/>
</g>
<g id="Layer 3" vectornator:layerName="Layer 3" visibility="hidden">
<path stroke="#030000" stroke-width="1" d="M31.765+31.9149C31.3349+31.7223+31.6798+32.7542+31.7206+32.7134C31.949+32.485+31.9868+31.7818+31.9868+31.7818C31.9868+31.7818+31.5997+32.6126+31.765+32.4472C31.9818+32.2304+32.1036+32.0665+31.765+31.9149Z" fill="none" stroke-linecap="round" opacity="1" stroke-linejoin="round"/>
<path stroke="#030000" stroke-width="1" d="M42.723+31.8483C42.4871+31.8912+42.4288+32.6107+42.723+32.7578C42.9698+32.8812+43.219+31.7172+42.9448+31.6487C42.6896+31.5849+42.617+32.7289+42.8561+32.6691C43.0799+32.6131+43.1375+31.743+43.0336+31.6043C42.8763+31.3947+42.9066+31.8149+42.723+31.8483Z" fill="none" stroke-linecap="round" opacity="1" stroke-linejoin="round"/>
<path stroke="#030000" stroke-width="1" d="M35.9353+30.4065C35.6083+33.349+35.3591+36.3487+34.693+39.235C34.3594+40.6806+33.0362+43.0914+33.2734+44.5144C33.4644+45.6604+34.8031+45.4421+35.536+45.0024C35.6096+44.9582+36.7782+44.2506+36.7782+44.2926C36.7782+44.3912+36.6155+44.475+36.5564+44.5144" fill="none" stroke-linecap="round" opacity="1" stroke-linejoin="round"/>
<path stroke="#030000" stroke-width="1" d="M33.961+48.6181C33.788+47.7636+30.8242+47.0022+30.1235+47.265C27.9956+48.063+26.8346+50.6329+24.7554+51.524C24.0174+51.8403+22.205+52.1276+21.4724+51.8345C21.0784+51.6769+20.732+51.3603+20.452+51.0803C20.4021+51.0304+19.9186+50.679+20.0084+50.8585C21.7389+54.3196+27.2711+53.7693+30.301+52.6331C32.5119+51.804+34.669+52.1155+33.961+48.6181Z" fill="none" stroke-linecap="round" opacity="1" stroke-linejoin="round"/>
<path stroke="#030000" stroke-width="1" d="M36.1571+49.5054C34.9916+49.4108+36.6336+46.7789+37.7098+46.5995C40.1085+46.1997+42.0418+48.6761+44.2758+48.9952C45.3305+49.1459+46.5713+48.7989+47.47+48.2854C47.7446+48.1285+48.5462+47.1319+48.801+47.1319C48.867+47.1319+48.6303+47.4733+48.6235+47.4868C48.3039+48.1261+47.9436+48.5735+47.3813+48.9952C46.2153+49.8697+44.6847+50.7016+43.211+50.9472C41.2609+51.2723+39.0858+51.8791+37.1331+51.3909C36.495+51.2314+36.2082+49.5095+36.1571+49.5054Z" fill="none" stroke-linecap="round" opacity="1" stroke-linejoin="round"/>
</g>
<g id="Layer 4" vectornator:layerName="Layer 4" visibility="hidden">
<path stroke="#030000" stroke-width="1" d="M45.3567+6.93765C46.215+6.50849+46.6473+5.83623+47.708+5.73981C49.1232+5.61116+50.3215+6.51418+51.5233+7.11511C55.7451+9.226+57.7388+11.4774+59.642+15.8549C65.314+28.9005+61.3707+43.2182+62.0377+56.8921C62.2063+60.3478+62.3081+64.4155+64.6996+67.1847C66.3946+69.1473+69.9663+69.0949+71.3543+66.8741" fill="none" stroke-linecap="round" opacity="1" stroke-linejoin="round"/>
<path stroke="#030000" stroke-width="1" d="M43.7595+9.11151C44.0713+9.26737+44.3659+8.8368+44.6025+8.66787C45.3572+8.12878+46.3964+7.90103+47.3087+8.0024C48.7268+8.15996+50.2169+9.6804+51.3459+10.4868C52.5789+11.3676+53.0956+13.2001+53.919+14.4353C54.9795+16.0259+56.3232+17.3428+56.9802+19.1823C58.7938+24.2605+57.8827+29.3604+57.6456+34.5767C57.5051+37.6691+57.8909+40.7239+58.0449+43.8046C58.187+46.6464+57.8702+49.4414+57.7787+52.2782C57.6829+55.2478+57.8637+58.1911+58.0449+61.1511C58.1881+63.49+58.2274+65.9463+59.0653+68.1607C59.9385+70.4685+61.698+72.262+64.2116+72.5971" fill="none" stroke-linecap="round" opacity="1" stroke-linejoin="round"/>
<path stroke="#030000" stroke-width="1" d="M43.0053+11.7734C44.1563+11.7734+45.0766+10.0879+46.4214+10.6643C47.5775+11.1597+47.9505+12.6528+48.3291+13.7254C49.2853+16.4346+50.402+19.084+50.8579+21.9329C51.2037+24.0946+51.2302+26.3224+51.479+28.4988C51.7585+30.9449+52.2028+33.3971+52.2775+35.8633C52.3793+39.2225+51.8782+42.5383+51.8782+45.8897C51.8782+49.4371+52.4468+52.9389+52.2775+56.4928C52.0519+61.2306+50.8115+70.3812+57.3351+71.5324" fill="none" stroke-linecap="round" opacity="1" stroke-linejoin="round"/>
<path stroke="#030000" stroke-width="1" d="M34.3099+8.84532C30.7174+5.25284+22.8411+7.12725+20.5125+11.5516C19.3281+13.802+18.7464+16.3252+18.1612+18.783C17.2704+22.5244+17.0865+26.4053+16.3866+30.1847C15.6798+34.0018+14.93+37.8227+14.1684+41.6307C13.6597+44.1741+13.0444+46.8392+12.9262+49.4388C12.7868+52.505+13.1759+55.4807+13.2811+58.5336C13.4117+62.3198+14.5399+65.847+15.6768+69.4472C16.1431+70.9238+16.2833+73.089+17.2739+74.3273" fill="none" stroke-linecap="round" opacity="1" stroke-linejoin="round"/>
<path stroke="#030000" stroke-width="1" d="M36.2619+12.7938C35.1346+12.7938+34.3314+12.2505+33.1121+12.6163C27.8435+14.1969+25.2147+23.4167+24.2392+28.0995C23.3959+32.1472+23.2748+36.2932+22.4646+40.3441C21.7129+44.1027+20.7293+48.0307+20.6456+51.8789C20.4728+59.8305+21.8278+68.2755+23.7511+75.9688" fill="none" stroke-linecap="round" opacity="1" stroke-linejoin="round"/>
<path stroke="#030000" stroke-width="1" d="M33.2008+10.8861C33.0769+11.1338+29.7358+10.7438+29.0749+11.0192C26.8271+11.9558+25.1178+15.1047+24.0617+17.1415C20.8818+23.2741+19.9418+29.754+18.871+36.4844C18.1605+40.9508+17.4734+45.3809+17.0077+49.8825C16.6424+53.4139+16.0375+56.9209+16.1648+60.4856C16.2327+62.3857+16.7378+64.24+16.9634+66.1199C17.3449+69.2989+17.7549+72.5176+18.383+75.6583" fill="none" stroke-linecap="round" opacity="1" stroke-linejoin="round"/>
<path stroke="#030000" stroke-width="1" d="M38.5689+9.06715C38.0498+9.06715+37.5661+7.62075+37.1492+7.20384C36.7019+6.75654+36.0784+6.44834+35.4634+6.31655C33.472+5.88982+31.4633+6.44795+29.4742+6.53837C26.5415+6.67167+23.484+6.21333+20.6456+7.15947C15.0351+9.02965+12.456+15.964+11.1073+21.1343C10.0613+25.1437+8.90175+29.2854+9.11086+33.4676C9.23671+35.9848+10.0315+38.3563+9.95378+40.9209C9.89163+42.972+9.46599+44.9975+9.37704+47.0432C9.2416+50.1583+9.37704+53.2862+9.37704+56.4041C9.37704+58.6544+9.19209+60.9424+9.33268+63.1918C9.49224+65.7448+10.8016+67.7336+11.5065+70.1127C12.1337+72.2294+11.2059+74.8609+10.3087+76.7674" fill="none" stroke-linecap="round" opacity="1" stroke-linejoin="round"/>
</g>
<g id="Layer 5" vectornator:layerName="Layer 5" visibility="hidden">
<path stroke="#030000" stroke-width="1" d="M0.849796+62.1867C0.849796+64.0191+2.91318+62.5982+3.41779+62.4721C3.52365+62.4456+3.55921+62.5937+3.58898+62.6433C3.89944+63.1607+4.44053+63.7056+5.07271+63.7846C5.72927+63.8667+5.8649+63.1569+6.32817+63.1569C6.7197+63.1569+7.00621+63.6695+7.41244+63.7275C8.15074+63.833+8.66983+63.2935+9.3527+63.1569C9.86266+63.0549+10.06+64.2913+10.6652+64.4123C11.954+64.6701+12.7282+62.976+13.918+63.2139C14.3156+63.2935+14.3648+64.087+14.7169+64.2982C15.422+64.7212+16.0465+63.7152+16.6572+63.6134C17.0732+63.5441+17.5837+64.464+18.2551+64.4123C19.2415+64.3365+20.662+62.4721+21.1084+62.4721C21.6779+62.4721+21.5027+63.6705+22.0214+63.6705C22.5457+63.6705+23.4091+62.7769+23.9046+62.5291C24.484+62.2395+24.7391+62.948+25.2742+62.8715C25.8777+62.7853+26.2307+62.0726+26.758+62.0726" fill="none" stroke-linecap="round" opacity="1" stroke-linejoin="round"/>
<path stroke="#030000" stroke-width="1" d="M50.84+62.3579C50.753+62.0968+51.2945+61.4449+51.4107+61.4449C51.7063+61.4449+52.4617+62.3883+52.8373+62.5291C54.253+63.06+53.7466+61.9027+54.0928+61.7873C54.1453+61.7698+54.8083+62.4096+54.9488+62.4721C55.6444+62.7813+56.3759+62.6431+57.0602+62.3579C57.4982+62.1755+57.9805+61.8943+58.3157+61.559C58.3425+61.5322+58.539+61.2323+58.601+61.2737C59.1866+61.664+59.488+62.1832+60.4272+61.9014C61.0629+61.7107+62.0026+60.646+62.5957+60.646C63.4118+60.646+63.4871+62.0457+64.6501+61.7873C65.2823+61.6468+66.3685+60.5788+66.9898+60.703C67.5064+60.8063+67.2168+62.0726+67.9599+62.0726C68.612+62.0726+68.9496+60.8172+69.6719+60.8172C70.2209+60.8172+70.0906+61.4145+70.5279+61.502C71.513+61.699+72.8846+60.6654+73.8378+60.4748" fill="none" stroke-linecap="round" opacity="1" stroke-linejoin="round"/>
<path stroke="#030000" stroke-width="1" d="M55.8618+0.840324C57.7974-0.127434+57.7085+1.56545+58.8864+1.69632C59.5384+1.76877+60.0241+1.12505+60.7125+1.23979C61.3377+1.34398+61.6748+2.01314+62.2533+2.09579C62.769+2.16946+63.3616+1.91634+63.8511+2.03872C64.6305+2.23355+65.328+2.91931+66.1338+3.00885C66.7486+3.07716+67.3017+2.9546+67.9029+3.18005C68.4683+3.39209+68.8232+4.39131+69.3295+4.49258C69.776+4.58187+70.1708+4.0889+70.585+4.20724C71.3759+4.43321+70.8507+5.70968+71.6122+6.09044" fill="none" stroke-linecap="round" opacity="1" stroke-linejoin="round"/>
<path stroke="#030000" stroke-width="1" d="M0.507397+9.22909C1.22081+8.87238+1.49197+7.70961+2.33352+7.28883C3.25253+6.82933+4.29788+7.14764+5.24391+6.8323C6.56696+6.39128+7.38822+4.78963+8.72496+4.49258C9.22395+4.38169+9.76988+4.53468+10.2658+4.43551C10.7083+4.347+11.0817+3.85515+11.4642+3.63658C12.0259+3.31557+12.6512+3.31534+13.2332+3.06591C14.0344+2.72255+14.6529+2.04171+15.4588+1.69632C16.0182+1.45659+16.6481+1.85002+17.2279+1.75339C17.8422+1.651+18.1297+0.899643+18.7116+0.783257C18.9455+0.736478+19.796+1.06859+20.1953+1.06859" fill="none" stroke-linecap="round" opacity="1" stroke-linejoin="round"/>
<path stroke="#030000" stroke-width="1" d="M15.63+27.9469C15.5479+27.7827+16.0159+27.9872+16.2577+27.9469C16.5723+27.8945+16.9034+27.3583+17.1137+27.148C18.0845+26.1772+17.5845+26.3576+18.7687+26.1208C19.3063+26.0132+19.7675+24.8138+20.2524+24.5229C20.7969+24.1962+21.528+24.5068+22.0785+24.0664C22.855+23.4452+23.2891+22.4309+24.0758+21.8408C24.3791+21.6133+24.7829+21.7955+25.103+21.5554C25.7893+21.0407+26.0694+20.1325+26.6438+19.5581C26.9185+19.2834+27.5427+19.2992+27.8993+19.0445C28.5444+18.5837+28.9444+17.7972+29.3259+17.1613C29.3878+17.0582+29.3198+16.8189+29.4401+16.8189C29.9001+16.8189+29.9116+17.23+30.5243+16.7048C31.0352+16.2669+31.8034+15.5463+31.8939+14.8216C31.9841+14.1003+31.0009+14.3358+31.7227+13.7944" fill="none" stroke-linecap="round" opacity="1" stroke-linejoin="round"/>
<path stroke="#030000" stroke-width="1" d="M41.5952+12.3107C42.4137+14.766+43.7847+12.7544+44.3344+13.1667C44.9097+13.5981+44.1073+15.045+45.5899+15.4493C46.1724+15.6082+49.3789+15.4651+49.4133+15.5064C49.9302+16.1266+49.3022+17.5055+50.0981+17.9603C51.0421+18.4997+52.2643+16.8061+53.2368+17.3896C53.7216+17.6805+53.6959+18.5905+54.0928+18.9875C54.2457+19.1403+54.603+19.1493+54.7776+19.0445C54.8699+18.9892+55.0819+18.7402+55.0058+18.8163C54.5506+19.2715+54.4827+20.0567+55.0629+20.4712C55.7997+20.9974+56.9533+21.0121+57.8021+20.8706C57.9147+20.8519+58.0935+20.7686+58.1445+20.8706C58.2106+21.0027+57.9976+21.2056+57.9733+21.3272C57.7552+22.4177+58.6858+22.069+59.3429+22.069" fill="none" stroke-linecap="round" opacity="1" stroke-linejoin="round"/>
<path stroke="#030000" stroke-width="1" d="M61.5685+56.3089C61.4314+56.1718+62.1207+56.8645+62.4816+56.9366C63.0017+57.0407+63.42+56.1298+63.6799+56.1948C64.0352+56.2836+63.9884+56.7084+64.4789+56.7084C65.1858+56.7084+65.7058+56.1173+66.3621+56.0236C67.1012+55.918+67.1634+56.4619+67.7317+56.6513C68.1983+56.8068+69.7487+55.876+70.2997+55.7382" fill="none" stroke-linecap="round" opacity="1" stroke-linejoin="round"/>
<path stroke="#030000" stroke-width="1" d="M64.7071+48.3767C65.0078+49.8801+65.9959+48.4746+66.6474+48.6049C66.9538+48.6662+67.0549+49.1837+67.4463+49.2327C67.4821+49.2371+71.1577+48.1243+71.2127+48.0913" fill="none" stroke-linecap="round" opacity="1" stroke-linejoin="round"/>
<path stroke="#030000" stroke-width="1" d="M67.0469+38.1047C67.5219+38.2235+68.0491+38.3994+68.5306+38.2188C68.6582+38.171+69.4841+37.6316+69.6149+37.7623C69.7248+37.8723+69.5444+38.3755+69.8431+38.2759C70.0912+38.1932+70.409+37.7465+70.6421+37.5911" fill="none" stroke-linecap="round" opacity="1" stroke-linejoin="round"/>
<path stroke="#030000" stroke-width="1" d="M66.1338+18.1885C66.8069+17.9642+67.0863+18.6451+67.6746+18.6451C67.964+18.6451+68.0207+18.3925+68.2453+18.3027C68.5217+18.1921+68.9638+18.4554+69.2725+18.4168C69.7072+18.3624+70.133+18.0724+70.5279+17.9032" fill="none" stroke-linecap="round" opacity="1" stroke-linejoin="round"/>
<path stroke="#030000" stroke-width="1" d="M17.9697+11.2264C16.9614+11.7306+14.8571+12.1655+13.9751+11.2835" fill="none" stroke-linecap="round" opacity="1" stroke-linejoin="round"/>
<path stroke="#030000" stroke-width="1" d="M8.61083+18.4739C7.85196+19.9916+7.84581+18.2857+6.67057+18.8733" fill="none" stroke-linecap="round" opacity="1" stroke-linejoin="round"/>
<path stroke="#030000" stroke-width="1" d="M8.8391+32.8546C8.79543+32.9856+8.62349+33.4887+8.4967+33.5394C8.15926+33.6744+8.00479+33.2029+7.69777+33.2541C7.10856+33.3523+6.59819+33.9959+5.52924+33.9959" fill="none" stroke-linecap="round" opacity="1" stroke-linejoin="round"/>
<path stroke="#030000" stroke-width="1" d="M9.06736+42.8412C8.37197+43.1889+8.15234+42.5559+7.58364+42.5559C7.26276+42.5559+7.02183+43.0454+6.61351+42.8412C6.0555+42.5622+5.56078+41.5347+5.30098+41.0151" fill="none" stroke-linecap="round" opacity="1" stroke-linejoin="round"/>
<path stroke="#030000" stroke-width="1" d="M12.8908+51.5153C12.3773+52.5423+11.9099+51.4505+11.1788+51.5724C10.8086+51.6341+10.6914+52.1326+10.3799+52.2572C8.95103+52.8287+7.36642+51.0528+6.38524+50.3169" fill="none" stroke-linecap="round" opacity="1" stroke-linejoin="round"/>
<path stroke="#030000" stroke-width="1" d="M13.062+57.7926C13.062+58.0778+13.0857+58.4042+12.7196+58.4774C12.0961+58.6021+11.4443+57.9006+10.7223+58.0209C9.60952+58.2064+7.68677+60.084+6.9559+58.135" fill="none" stroke-linecap="round" opacity="1" stroke-linejoin="round"/>
</g>
</svg>
